<svg width="69" height="95" viewBox="0 0 69 95" fill="none" xmlns="http://www.w3.org/2000/svg">
<path class="logo-path" fill-rule="evenodd" clip-rule="evenodd" d="M37.7731 42.503L38.0999 41.8962C41.4143 43.8257 49.0888 48.4596 53.2714 51.5593C53.2403 54.1734 52.9633 61.0636 52.1044 67.7111C51.7154 71.0255 50.1158 79.2415 46.8294 85.5902C48.7122 83.0849 52.9167 76.1138 54.6719 68.2713C55.2788 66.0461 56.6605 59.3644 57.3327 50.4389C53.7538 48.3693 44.9715 43.614 38.4734 41.1493L38.9402 40.1689C43.7484 41.4916 54.98 44.8464 61.4407 47.6847C61.3007 51.0458 60.4697 59.8686 58.2664 68.2713C57.128 72.6127 53.9903 83.7882 45.1022 94.5063C45.2247 94.3799 45.3737 94.2297 45.5485 94.0535C47.4389 92.1486 52.3415 87.2085 59.2467 76.4406C62.7011 70.0452 64.9885 62.6695 67.8828 45.1172C61.0673 42.9232 51.7776 40.4957 39.2203 39.1886L39.5937 38.4417C44.2619 38.1928 55.1667 38.0216 61.4407 39.3287C62.1565 34.5516 61.8982 23.4663 56.2591 17.3416C57.5039 20.7494 59.8255 29.1988 58.033 35.7342C53.4737 35.7031 43.431 35.8929 39.7338 36.9012L39.1269 36.1076C41.8656 34.4738 48.1178 31.066 51.2174 30.5058C51.2276 30.4312 51.2378 30.3561 51.2481 30.2804C52.1382 23.7333 53.5356 13.4541 44.0752 0.209473C46.3626 4.92432 50.0597 16.3053 47.6696 28.2184L38.38 34.9873L37.6798 34.007L40.5274 31.066C40.0139 30.2258 38.4827 28.3492 36.4661 27.5649C37.4308 28.7164 38.7348 31.2621 36.2327 32.2331H32.5448C31.4711 31.953 29.9213 30.6272 32.3114 27.5649C31.3311 28.0162 29.1744 29.3481 28.3902 31.066L30.5375 33.6335L30.0707 34.5671L21.1078 28.2651C20.0497 23.7059 19.1845 11.7212 24.1888 0.256154C23.7862 0.997526 23.3986 1.70434 23.0265 2.38296C17.963 11.6179 15.7611 15.6336 17.3266 30.5058C19.0849 30.8793 23.8434 32.5038 28.8103 36.0143L28.5302 36.6211C24.2666 36.2166 14.7031 35.4914 10.5578 35.8275C9.84199 32.4976 9.18533 24.1385 12.285 17.3416C7.38343 24.2505 6.40311 29.2921 7.24338 39.4687C10.7756 38.784 19.9781 37.6201 28.5302 38.4417L28.8103 39.1886C22.5238 39.9822 8.11166 42.2789 0.754639 45.1172C0.960637 46.2204 1.16061 47.3022 1.35665 48.3626C3.1597 58.1161 4.62936 66.0661 7.38343 72.3326C12.0519 81.3104 16.0382 85.9226 20.8875 91.5333C21.7115 92.4867 22.5605 93.469 23.4419 94.5063C15.9262 84.0963 8.13967 71.0255 7.24338 47.6847C12.1916 45.7085 23.6286 41.4387 29.7906 40.1689L30.2107 41.1493C25.1691 43.281 14.2923 48.1048 11.4914 50.3455C11.5223 50.7608 11.5527 51.1779 11.5833 51.5969C12.2914 61.3029 13.0741 72.0309 21.6213 85.5902C18.9605 79.755 15.9542 73.1075 15.3193 51.5593C19.0072 49.0851 27.2138 43.6887 30.5375 41.8962L30.911 42.503C29.2304 43.5767 25.3278 46.2749 23.1618 48.4783C23.0218 49.3808 22.8257 52.745 23.1618 58.9816C24.7645 61.8915 29.2398 68.1872 34.3187 70.0919C36.9173 69.0337 42.7588 65.3303 45.3356 58.9816C45.5379 57.4878 45.8958 53.3145 45.709 48.5716C44.153 47.1556 40.3873 43.9595 37.7731 42.503ZM29.3706 44.9306L29.3512 44.9467C28.3606 45.7643 26.1147 47.618 25.0759 48.8052C25.0915 50.7503 25.2346 55.1912 25.496 57.2079C26.6631 59.5109 30.1829 64.5929 34.3655 66.4975C36.5129 65.3772 41.4985 61.8014 43.1417 57.2079C43.1502 57.1181 43.1596 57.0202 43.1696 56.9146C43.3257 55.2813 43.6552 51.8332 43.6552 48.9919C42.7371 48.0116 40.6115 45.8269 39.4538 44.9306C40.0296 45.6775 41.3865 47.5355 42.2081 48.9919C42.2859 49.91 42.2347 52.1841 41.928 54.1269C41.6479 55.9008 39.2671 60.8024 34.3655 62.8564C32.1715 61.9516 27.6714 58.9391 26.8498 54.1269C26.7098 53.4734 26.4577 51.6715 26.5697 49.132C27.0628 48.3759 27.9263 47.0874 28.6222 46.0489C28.9145 45.6127 29.1773 45.2206 29.3706 44.9306Z" fill="#EDF1F7"/>
<path d="M38.0999 41.8962L38.2581 41.6245L37.9772 41.461L37.8232 41.7471L38.0999 41.8962ZM37.7731 42.503L37.4964 42.354L37.3495 42.6268L37.6202 42.7776L37.7731 42.503ZM53.2714 51.5593L53.5857 51.563L53.5877 51.4024L53.4586 51.3067L53.2714 51.5593ZM52.1044 67.7111L51.7926 67.6708L51.7922 67.6745L52.1044 67.7111ZM46.8294 85.5902L46.5502 85.4457L47.0806 85.779L46.8294 85.5902ZM54.6719 68.2713L54.3686 68.1886L54.3667 68.1956L54.3652 68.2026L54.6719 68.2713ZM57.3327 50.4389L57.6462 50.4625L57.661 50.2656L57.4901 50.1668L57.3327 50.4389ZM38.4734 41.1493L38.1896 41.0141L38.0429 41.3221L38.3619 41.4431L38.4734 41.1493ZM38.9402 40.1689L39.0236 39.8659L38.7696 39.796L38.6564 40.0338L38.9402 40.1689ZM61.4407 47.6847L61.7548 47.6978L61.7637 47.4833L61.5671 47.3969L61.4407 47.6847ZM58.2664 68.2713L58.5704 68.351L58.5704 68.351L58.2664 68.2713ZM45.1022 94.5063L44.8602 94.3057L45.3279 94.725L45.1022 94.5063ZM45.5485 94.0535L45.7717 94.2749L45.7717 94.2749L45.5485 94.0535ZM59.2467 76.4406L59.5113 76.6102L59.5176 76.6003L59.5232 76.5899L59.2467 76.4406ZM67.8828 45.1172L68.1929 45.1683L68.237 44.901L67.9791 44.818L67.8828 45.1172ZM39.2203 39.1886L38.9391 39.0481L38.736 39.4542L39.1877 39.5013L39.2203 39.1886ZM39.5937 38.4417L39.577 38.1278L39.3944 38.1376L39.3126 38.3011L39.5937 38.4417ZM61.4407 39.3287L61.3766 39.6364L61.7023 39.7042L61.7516 39.3752L61.4407 39.3287ZM56.2591 17.3416L56.4903 17.1287L55.9638 17.4495L56.2591 17.3416ZM58.033 35.7342L58.0308 36.0485L58.2722 36.0501L58.3361 35.8173L58.033 35.7342ZM39.7338 36.9012L39.4841 37.0922L39.6125 37.2601L39.8165 37.2045L39.7338 36.9012ZM39.1269 36.1076L38.9659 35.8377L38.663 36.0184L38.8772 36.2986L39.1269 36.1076ZM51.2174 30.5058L51.2733 30.8152L51.4982 30.7745L51.5289 30.5481L51.2174 30.5058ZM51.2481 30.2804L51.5595 30.3228L51.5595 30.3228L51.2481 30.2804ZM44.0752 0.209473L44.331 0.0267762L43.7924 0.346672L44.0752 0.209473ZM47.6696 28.2184L47.8548 28.4725L47.9537 28.4004L47.9778 28.2803L47.6696 28.2184ZM38.38 34.9873L38.1242 35.17L38.3087 35.4282L38.5651 35.2413L38.38 34.9873ZM37.6798 34.007L37.454 33.7883L37.2718 33.9765L37.424 34.1897L37.6798 34.007ZM40.5274 31.066L40.7532 31.2847L40.9225 31.1098L40.7956 30.9021L40.5274 31.066ZM36.4661 27.5649L36.58 27.272L36.2251 27.7668L36.4661 27.5649ZM36.2327 32.2331V32.5474H36.2915L36.3464 32.5261L36.2327 32.2331ZM32.5448 32.2331L32.4655 32.5372L32.5045 32.5474H32.5448V32.2331ZM32.3114 27.5649L32.5592 27.7583L32.18 27.2794L32.3114 27.5649ZM28.3902 31.066L28.1042 30.9355L28.0219 31.1157L28.149 31.2677L28.3902 31.066ZM30.5375 33.6335L30.8186 33.7741L30.9108 33.5899L30.7786 33.4319L30.5375 33.6335ZM30.0707 34.5671L29.8899 34.8243L30.1886 35.0343L30.3518 34.7077L30.0707 34.5671ZM21.1078 28.2651L20.8016 28.3362L20.8288 28.4532L20.927 28.5223L21.1078 28.2651ZM24.1888 0.256154L24.4769 0.381895L23.9126 0.106141L24.1888 0.256154ZM23.0265 2.38296L22.7509 2.23184L22.7509 2.23184L23.0265 2.38296ZM17.3266 30.5058L17.014 30.5387L17.0379 30.7659L17.2613 30.8133L17.3266 30.5058ZM28.8103 36.0143L29.0957 36.146L29.2053 35.9085L28.9917 35.7576L28.8103 36.0143ZM28.5302 36.6211L28.5005 36.9341L28.7222 36.9551L28.8156 36.7529L28.5302 36.6211ZM10.5578 35.8275L10.2505 35.8936L10.3084 36.1631L10.5832 36.1408L10.5578 35.8275ZM12.285 17.3416L12.571 17.472L12.0286 17.1598L12.285 17.3416ZM7.24338 39.4687L6.93013 39.4946L6.95898 39.844L7.30319 39.7773L7.24338 39.4687ZM28.5302 38.4417L28.8245 38.3314L28.7556 38.1476L28.5603 38.1288L28.5302 38.4417ZM28.8103 39.1886L28.8497 39.5005L29.2442 39.4507L29.1046 39.0783L28.8103 39.1886ZM0.754639 45.1172L0.641504 44.8239L0.397689 44.918L0.445656 45.1749L0.754639 45.1172ZM1.35665 48.3626L1.66574 48.3055L1.66574 48.3055L1.35665 48.3626ZM7.38343 72.3326L7.09567 72.459L7.09981 72.4685L7.10456 72.4776L7.38343 72.3326ZM20.8875 91.5333L21.1253 91.3278L21.1253 91.3278L20.8875 91.5333ZM23.4419 94.5063L23.2024 94.7099L23.6967 94.3224L23.4419 94.5063ZM7.24338 47.6847L7.1268 47.3928L6.92078 47.4751L6.92929 47.6967L7.24338 47.6847ZM29.7906 40.1689L30.0795 40.0451L29.9784 39.8093L29.7272 39.8611L29.7906 40.1689ZM30.2107 41.1493L30.3332 41.4388L30.6241 41.3157L30.4996 41.0254L30.2107 41.1493ZM11.4914 50.3455L11.2951 50.1001L11.1657 50.2036L11.178 50.3689L11.4914 50.3455ZM11.5833 51.5969L11.2698 51.6197L11.2698 51.6197L11.5833 51.5969ZM21.6213 85.5902L21.3554 85.7578L21.9073 85.4597L21.6213 85.5902ZM15.3193 51.5593L15.1442 51.2982L15 51.395L15.0051 51.5685L15.3193 51.5593ZM30.5375 41.8962L30.8052 41.7314L30.6496 41.4786L30.3883 41.6195L30.5375 41.8962ZM30.911 42.503L31.0802 42.7679L31.3406 42.6015L31.1787 42.3383L30.911 42.503ZM23.1618 48.4783L22.9377 48.2579L22.8667 48.3301L22.8512 48.4301L23.1618 48.4783ZM23.1618 58.9816L22.8479 58.9985L22.8518 59.0703L22.8865 59.1333L23.1618 58.9816ZM34.3187 70.0919L34.2084 70.3862L34.3234 70.4293L34.4373 70.383L34.3187 70.0919ZM45.3356 58.9816L45.6268 59.0998L45.6417 59.0631L45.6471 59.0238L45.3356 58.9816ZM45.709 48.5716L46.0231 48.5593L46.0179 48.4277L45.9206 48.3392L45.709 48.5716ZM29.3512 44.9467L29.5513 45.1891L29.5513 45.1891L29.3512 44.9467ZM29.3706 44.9306L29.6321 45.105L29.1705 44.6882L29.3706 44.9306ZM25.0759 48.8052L24.8394 48.5982L24.7606 48.6882L24.7616 48.8077L25.0759 48.8052ZM25.496 57.2079L25.1843 57.2483L25.1913 57.3018L25.2157 57.35L25.496 57.2079ZM34.3655 66.4975L34.2353 66.7836L34.3749 66.8472L34.5109 66.7762L34.3655 66.4975ZM43.1417 57.2079L43.4376 57.3138L43.4509 57.2767L43.4546 57.2375L43.1417 57.2079ZM43.1696 56.9146L42.8567 56.8847L42.8567 56.8847L43.1696 56.9146ZM43.6552 48.9919H43.9695V48.8677L43.8846 48.7771L43.6552 48.9919ZM39.4538 44.9306L39.6463 44.6821L39.2049 45.1225L39.4538 44.9306ZM42.2081 48.9919L42.5213 48.9654L42.5155 48.8971L42.4818 48.8375L42.2081 48.9919ZM41.928 54.1269L41.6175 54.0779L41.6175 54.0779L41.928 54.1269ZM34.3655 62.8564L34.2457 63.147L34.3665 63.1968L34.487 63.1463L34.3655 62.8564ZM26.8498 54.1269L27.1599 54.074L27.1572 54.061L26.8498 54.1269ZM26.5697 49.132L26.3064 48.9603L26.2595 49.0323L26.2557 49.1181L26.5697 49.132ZM28.6222 46.0489L28.3611 45.874L28.3611 45.874L28.6222 46.0489ZM37.8232 41.7471L37.4964 42.354L38.0499 42.652L38.3767 42.0452L37.8232 41.7471ZM53.4586 51.3067C49.2604 48.1956 41.5722 43.5539 38.2581 41.6245L37.9418 42.1678C41.2564 44.0974 48.9171 48.7236 53.0843 51.8118L53.4586 51.3067ZM52.4161 67.7514C53.277 61.0888 53.5545 54.186 53.5857 51.563L52.9571 51.5555C52.9261 54.1609 52.6497 61.0384 51.7927 67.6708L52.4161 67.7514ZM47.1085 85.7347C50.4193 79.3389 52.0253 71.0812 52.4166 67.7477L51.7922 67.6745C51.4054 70.9698 49.8123 79.144 46.5502 85.4457L47.1085 85.7347ZM54.3652 68.2026C52.6221 75.9906 48.4418 82.9215 46.5781 85.4013L47.0806 85.779C48.9826 83.2483 53.2112 76.237 54.9786 68.3399L54.3652 68.2026ZM57.0193 50.4153C56.3484 59.324 54.9695 65.9856 54.3686 68.1886L54.9751 68.354C55.588 66.1067 56.9727 59.4048 57.6462 50.4625L57.0193 50.4153ZM38.3619 41.4431C44.8354 43.8986 53.5998 48.6434 57.1754 50.711L57.4901 50.1668C53.9078 48.0953 45.1075 43.3295 38.5848 40.8554L38.3619 41.4431ZM38.6564 40.0338L38.1896 41.0141L38.7572 41.2844L39.224 40.3041L38.6564 40.0338ZM61.5671 47.3969C55.0834 44.5486 43.8321 41.1886 39.0236 39.8659L38.8568 40.472C43.6647 41.7945 54.8766 45.1443 61.3143 47.9725L61.5671 47.3969ZM58.5704 68.351C60.7809 59.9213 61.614 51.0752 61.7548 47.6978L61.1267 47.6716C60.9873 51.0163 60.1586 59.8159 57.9623 68.1916L58.5704 68.351ZM45.3441 94.707C54.2764 83.9356 57.4283 72.7066 58.5704 68.351L57.9623 68.1916C56.8277 72.5187 53.7042 83.6408 44.8602 94.3057L45.3441 94.707ZM45.3254 93.8321C45.1511 94.0078 45.0005 94.1595 44.8764 94.2876L45.3279 94.725C45.4488 94.6003 45.5964 94.4515 45.7717 94.2749L45.3254 93.8321ZM58.9821 76.2709C52.0918 87.0156 47.2046 91.9386 45.3254 93.8321L45.7717 94.2749C47.6733 92.3587 52.5912 87.4014 59.5113 76.6102L58.9821 76.2709ZM67.5727 45.0661C64.6797 62.6104 62.3988 69.9434 58.9701 76.2912L59.5232 76.5899C63.0034 70.1469 65.2974 62.7286 68.1929 45.1683L67.5727 45.0661ZM39.1877 39.5013C51.7198 40.8057 60.9879 43.2278 67.7865 45.4164L67.9791 44.818C61.1467 42.6185 51.8355 40.1857 39.2528 38.876L39.1877 39.5013ZM39.3126 38.3011L38.9391 39.0481L39.5014 39.3292L39.8749 38.5823L39.3126 38.3011ZM61.5048 39.021C55.1865 37.7046 44.2446 37.8789 39.577 38.1278L39.6105 38.7556C44.2792 38.5066 55.1469 38.3385 61.3766 39.6364L61.5048 39.021ZM56.0278 17.5545C58.7885 20.5528 60.2476 24.7863 60.9228 28.8915C61.5975 32.993 61.483 36.9256 61.1299 39.2821L61.7516 39.3752C62.1143 36.9546 62.2285 32.9561 61.5432 28.7895C60.8584 24.6266 59.3688 20.2551 56.4903 17.1287L56.0278 17.5545ZM58.3361 35.8173C59.249 32.489 59.1108 28.693 58.5958 25.3176C58.0802 21.9383 57.1826 18.9536 56.5543 17.2338L55.9638 17.4495C56.5804 19.1374 57.4661 22.0813 57.9743 25.4124C58.4832 28.7476 58.6095 32.4439 57.7298 35.651L58.3361 35.8173ZM39.8165 37.2045C41.6265 36.7108 45.0272 36.4117 48.5751 36.2419C52.1111 36.0726 55.7557 36.033 58.0308 36.0485L58.0351 35.4199C55.751 35.4043 52.0946 35.444 48.5451 35.614C45.0075 35.7833 41.5382 36.0833 39.6511 36.598L39.8165 37.2045ZM38.8772 36.2986L39.4841 37.0922L39.9835 36.7103L39.3766 35.9167L38.8772 36.2986ZM51.1615 30.1965C49.5632 30.4854 47.189 31.4968 44.8982 32.622C42.5965 33.7525 40.3412 35.0172 38.9659 35.8377L39.288 36.3776C40.6513 35.5642 42.8914 34.3081 45.1754 33.1862C47.4703 32.059 49.7721 31.0865 51.2733 30.8152L51.1615 30.1965ZM50.9366 30.2381C50.9263 30.3137 50.9161 30.3889 50.906 30.4636L51.5289 30.5481C51.539 30.4735 51.5493 30.3984 51.5595 30.3228L50.9366 30.2381ZM43.8194 0.392169C48.5212 6.97473 50.5173 12.8085 51.2319 17.801C51.9471 22.7974 51.3815 26.9656 50.9366 30.2381L51.5595 30.3228C52.0047 27.0481 52.5829 22.8031 51.8542 17.712C51.125 12.6169 49.0896 6.68882 44.331 0.0267762L43.8194 0.392169ZM47.9778 28.2803C50.3859 16.2775 46.6636 4.82469 44.358 0.0722732L43.7924 0.346672C46.0615 5.02394 49.7336 16.3331 47.3615 28.1566L47.9778 28.2803ZM38.5651 35.2413L47.8548 28.4725L47.4845 27.9644L38.1949 34.7332L38.5651 35.2413ZM37.424 34.1897L38.1242 35.17L38.6358 34.8046L37.9356 33.8243L37.424 34.1897ZM40.3015 30.8474L37.454 33.7883L37.9056 34.2256L40.7532 31.2847L40.3015 30.8474ZM36.3521 27.8579C38.279 28.6072 39.764 30.4196 40.2592 31.2299L40.7956 30.9021C40.2638 30.0319 38.6864 28.0911 36.58 27.272L36.3521 27.8579ZM36.3464 32.5261C37.0253 32.2626 37.4788 31.8784 37.7363 31.4065C37.9923 30.9374 38.0343 30.4185 37.9604 29.9205C37.8145 28.9376 37.2073 27.9602 36.707 27.363L36.2251 27.7668C36.6895 28.3211 37.2167 29.1922 37.3385 30.0128C37.3984 30.4165 37.3576 30.7882 37.1845 31.1054C37.0128 31.4199 36.6911 31.718 36.1189 31.94L36.3464 32.5261ZM32.5448 32.5474H36.2327V31.9187H32.5448V32.5474ZM32.0636 27.3715C30.843 28.9354 30.5623 30.1392 30.8279 31.0319C31.0928 31.9222 31.8639 32.3803 32.4655 32.5372L32.6241 31.9289C32.152 31.8058 31.6114 31.4609 31.4305 30.8527C31.2502 30.2469 31.3897 29.2567 32.5592 27.7583L32.0636 27.3715ZM28.6761 31.1966C29.0387 30.4023 29.7306 29.6768 30.4729 29.0865C31.2118 28.4989 31.9743 28.0661 32.4428 27.8504L32.18 27.2794C31.6682 27.515 30.8622 27.9738 30.0816 28.5945C29.3045 29.2124 28.5259 30.0119 28.1042 30.9355L28.6761 31.1966ZM30.7786 33.4319L28.6313 30.8644L28.149 31.2677L30.2964 33.8352L30.7786 33.4319ZM30.3518 34.7077L30.8186 33.7741L30.2564 33.4929L29.7895 34.4266L30.3518 34.7077ZM20.927 28.5223L29.8899 34.8243L30.2515 34.31L21.2886 28.008L20.927 28.5223ZM23.9007 0.130414C18.8633 11.6713 19.7321 23.7276 20.8016 28.3362L21.414 28.1941C20.3673 23.6842 19.5057 11.771 24.4769 0.381895L23.9007 0.130414ZM23.3021 2.53408C23.6742 1.85552 24.062 1.14818 24.465 0.406168L23.9126 0.106141C23.5103 0.846875 23.123 1.55315 22.7509 2.23184L23.3021 2.53408ZM17.6392 30.4729C16.8581 23.0525 17.0207 18.3719 17.9959 14.4055C18.9721 10.4351 20.7664 7.15871 23.3021 2.53408L22.7509 2.23184C20.2231 6.84211 18.3847 10.191 17.3854 14.2554C16.3852 18.3236 16.2296 23.087 17.014 30.5387L17.6392 30.4729ZM28.9917 35.7576C23.9905 32.2229 19.1926 30.5808 17.3919 30.1984L17.2613 30.8133C18.9773 31.1778 23.6963 32.7848 28.6289 36.271L28.9917 35.7576ZM28.8156 36.7529L29.0957 36.146L28.5249 35.8826L28.2448 36.4894L28.8156 36.7529ZM10.5832 36.1408C14.6955 35.8074 24.2295 36.5288 28.5005 36.9341L28.5599 36.3082C24.3037 35.9044 14.7107 35.1755 10.5324 35.5143L10.5832 36.1408ZM11.999 17.2112C8.8601 24.0941 9.52745 32.53 10.2505 35.8936L10.8651 35.7615C10.1565 32.4652 9.51056 24.1828 12.571 17.472L11.999 17.2112ZM7.55664 39.4429C7.13739 34.3653 7.17533 30.5979 7.91788 27.2478C8.65904 23.904 10.1071 20.9546 12.5414 17.5235L12.0286 17.1598C9.56132 20.6375 8.06844 23.6634 7.30412 27.1118C6.54118 30.5539 6.5091 34.3955 6.93013 39.4946L7.55664 39.4429ZM28.5603 38.1288C19.9689 37.3035 10.7347 38.4718 7.18357 39.1601L7.30319 39.7773C10.8166 39.0963 19.9873 37.9368 28.5001 38.7546L28.5603 38.1288ZM29.1046 39.0783L28.8245 38.3314L28.2359 38.5521L28.516 39.299L29.1046 39.0783ZM0.867773 45.4104C8.18416 42.5879 22.5599 40.2945 28.8497 39.5005L28.7709 38.8768C22.4878 39.6699 8.03916 41.97 0.641504 44.8239L0.867773 45.4104ZM1.66574 48.3055C1.46971 47.2451 1.26968 46.1631 1.06362 45.0595L0.445656 45.1749C0.651594 46.2778 0.851521 47.3593 1.04757 48.4198L1.66574 48.3055ZM7.67119 72.2061C4.93502 65.9803 3.47109 58.0714 1.66574 48.3055L1.04757 48.4198C2.84832 58.1608 4.3237 66.1518 7.09567 72.459L7.67119 72.2061ZM21.1253 91.3278C16.2801 85.7218 12.3134 81.1319 7.6623 72.1876L7.10456 72.4776C11.7904 81.4888 15.7964 86.1235 20.6497 91.7389L21.1253 91.3278ZM23.6814 94.3028C22.799 93.2643 21.9492 92.2811 21.1253 91.3278L20.6497 91.7389C21.4738 92.6924 22.3219 93.6737 23.2024 94.7099L23.6814 94.3028ZM6.92929 47.6967C7.82871 71.1192 15.6486 84.2489 23.1871 94.6903L23.6967 94.3224C16.2037 83.9438 8.45063 70.9318 7.55747 47.6726L6.92929 47.6967ZM29.7272 39.8611C23.5338 41.1373 12.0718 45.4179 7.1268 47.3928L7.35996 47.9766C12.3114 45.9991 23.7235 41.7401 29.854 40.4768L29.7272 39.8611ZM30.4996 41.0254L30.0795 40.0451L29.5017 40.2928L29.9218 41.2731L30.4996 41.0254ZM11.6878 50.591C12.3635 50.0504 13.5459 49.3404 15.0376 48.5401C16.5235 47.7429 18.2981 46.8657 20.1454 45.9906C23.8397 44.2406 27.815 42.5035 30.3332 41.4388L30.0883 40.8597C27.5648 41.9268 23.5809 43.6675 19.8762 45.4225C18.024 46.2999 16.2391 47.182 14.7404 47.9861C13.2473 48.7871 12.0198 49.5203 11.2951 50.1001L11.6878 50.591ZM11.8968 51.574C11.8662 51.1551 11.8358 50.7378 11.8049 50.3222L11.178 50.3689C11.2088 50.7839 11.2393 51.2007 11.2698 51.6197L11.8968 51.574ZM21.8872 85.4225C13.383 71.9315 12.6041 61.2687 11.8968 51.574L11.2698 51.6197C11.9788 61.3372 12.7652 72.1303 21.3554 85.7578L21.8872 85.4225ZM15.0051 51.5685C15.3229 62.3551 16.2346 69.4259 17.4042 74.5372C18.575 79.6537 20.0024 82.7976 21.3353 85.7206L21.9073 85.4597C20.5794 82.5475 19.1733 79.4501 18.017 74.397C16.8595 69.3387 15.9506 62.3116 15.6335 51.55L15.0051 51.5685ZM30.3883 41.6195C27.0483 43.4209 18.8275 48.8271 15.1442 51.2982L15.4944 51.8203C19.1868 49.3431 27.3793 43.9566 30.6867 42.1728L30.3883 41.6195ZM31.1787 42.3383L30.8052 41.7314L30.2698 42.0609L30.6433 42.6678L31.1787 42.3383ZM23.386 48.6986C25.5254 46.5223 29.4022 43.8399 31.0802 42.7679L30.7417 42.2381C29.0586 43.3135 25.1303 46.0275 22.9377 48.2579L23.386 48.6986ZM23.4757 58.9647C23.1398 52.7321 23.3376 49.3951 23.4724 48.5265L22.8512 48.4301C22.7059 49.3665 22.5116 52.7578 22.8479 58.9985L23.4757 58.9647ZM34.4291 69.7975C31.9592 68.8713 29.6114 66.8648 27.6705 64.7037C25.7337 62.5471 24.2279 60.2656 23.4371 58.83L22.8865 59.1333C23.6985 60.6075 25.2316 62.9288 27.2028 65.1237C29.17 67.3141 31.5993 69.4078 34.2084 70.3862L34.4291 69.7975ZM45.0443 58.8634C42.5097 65.1083 36.7497 68.7626 34.2002 69.8007L34.4373 70.383C37.0849 69.3049 43.0079 65.5524 45.6268 59.0998L45.0443 58.8634ZM45.395 48.584C45.5809 53.3076 45.2241 57.4627 45.0241 58.9395L45.6471 59.0238C45.8517 57.513 46.2106 53.3214 46.0231 48.5593L45.395 48.584ZM37.6202 42.7776C40.1996 44.2147 43.9419 47.3885 45.4975 48.8041L45.9206 48.3392C44.3641 46.9227 40.575 43.7043 37.9261 42.2284L37.6202 42.7776ZM29.5513 45.1891L29.5707 45.173L29.1705 44.6882L29.1511 44.7043L29.5513 45.1891ZM25.3125 49.0122C26.3304 47.8489 28.5517 46.0141 29.5513 45.1891L29.1511 44.7043C28.1695 45.5144 25.8991 47.3871 24.8394 48.5982L25.3125 49.0122ZM25.8078 57.1675C25.549 55.1716 25.4058 50.7475 25.3902 48.8027L24.7616 48.8077C24.7772 50.753 24.9202 55.2109 25.1843 57.2483L25.8078 57.1675ZM34.4958 66.2115C32.4635 65.2861 30.5731 63.5775 29.038 61.7969C27.5052 60.0188 26.3479 58.1936 25.7764 57.0658L25.2157 57.35C25.8112 58.5252 26.9974 60.3925 28.5619 62.2073C30.1241 64.0196 32.0849 65.8044 34.2353 66.7836L34.4958 66.2115ZM42.8457 57.102C42.0477 59.333 40.4295 61.3348 38.728 62.9255C37.0282 64.5146 35.2682 65.6721 34.2202 66.2189L34.5109 66.7762C35.6102 66.2027 37.4167 65.012 39.1573 63.3847C40.8963 61.759 42.5925 59.6762 43.4376 57.3138L42.8457 57.102ZM42.8567 56.8847C42.8467 56.9902 42.8373 57.0883 42.8288 57.1782L43.4546 57.2375C43.4631 57.1479 43.4725 57.0501 43.4825 56.9445L42.8567 56.8847ZM43.3409 48.9919C43.3409 51.8157 43.0131 55.2489 42.8567 56.8847L43.4825 56.9445C43.6384 55.3138 43.9695 51.8507 43.9695 48.9919H43.3409ZM39.2614 45.1792C40.3959 46.0575 42.5045 48.2231 43.4258 49.2068L43.8846 48.7771C42.9697 47.8001 40.8272 45.5964 39.6463 44.6821L39.2614 45.1792ZM42.4818 48.8375C41.649 47.3612 40.2812 45.4891 39.7028 44.7387L39.2049 45.1225C39.778 45.8659 41.1239 47.7097 41.9343 49.1464L42.4818 48.8375ZM42.2384 54.1759C42.5486 52.2119 42.6015 49.9122 42.5213 48.9654L41.8949 49.0185C41.9702 49.9078 41.9209 52.1564 41.6175 54.0779L42.2384 54.1759ZM34.487 63.1463C37.0034 62.0918 38.8662 60.3095 40.1338 58.5718C41.3963 56.8411 42.0884 55.1262 42.2384 54.1759L41.6175 54.0779C41.4875 54.9015 40.8492 56.5244 39.6259 58.2014C38.4076 59.8715 36.6293 61.567 34.2441 62.5665L34.487 63.1463ZM26.54 54.1798C26.9652 56.6706 28.3402 58.6835 29.8733 60.1817C31.4054 61.6789 33.1133 62.68 34.2457 63.147L34.4854 62.5658C33.4238 62.128 31.7846 61.1704 30.3127 59.7321C28.8419 58.2948 27.556 56.3954 27.1596 54.074L26.54 54.1798ZM26.2557 49.1181C26.1426 51.682 26.3963 53.5109 26.5425 54.1928L27.1572 54.061C27.0232 53.4359 26.7728 51.6609 26.8837 49.1458L26.2557 49.1181ZM28.3611 45.874C27.6657 46.9116 26.8009 48.2021 26.3064 48.9603L26.833 49.3037C27.3247 48.5497 28.1869 47.2632 28.8833 46.2239L28.3611 45.874ZM29.1091 44.7563C28.916 45.0459 28.6535 45.4376 28.3611 45.874L28.8833 46.2239C29.1756 45.7878 29.4386 45.3954 29.6321 45.105L29.1091 44.7563Z" fill="#EDF1F7"/>
</svg>
